<svg xmlns="http://www.w3.org/2000/svg" version="1.1" xmlns:xlink="http://www.w3.org/1999/xlink" xmlns:svgjs="http://svgjs.dev/svgjs" width="2000" height="1999" viewBox="0 0 2000 1999"><g transform="matrix(1,0,0,1,-0.431486880466764,-0.4312711370263287)"><svg viewBox="0 0 343 343" data-background-color="#000000" preserveAspectRatio="xMidYMid meet" height="1999" width="2000" xmlns="http://www.w3.org/2000/svg" xmlns:xlink="http://www.w3.org/1999/xlink"><g id="tight-bounds" transform="matrix(1,0,0,1,0.0740000000000407,0.07400000000001228)"><svg viewBox="0 0 342.85155851775386 342.85155851775386" height="342.85155851775386" width="342.85155851775386"><rect width="342.852" height="342.852" fill="#ffffff" mask="url(#255aa92d-37ff-4c9b-8db7-3dae83d7383a)" data-fill-palette-color="tertiary"></rect><g><svg></svg></g><g><svg viewBox="0 0 342.85155851775386 342.85155851775386" height="342.85155851775386" width="342.85155851775386"><g><path d="M0 171.426c0-94.676 76.75-171.426 171.426-171.426 94.676 0 171.426 76.75 171.426 171.426 0 94.676-76.75 171.426-171.426 171.426-94.676 0-171.426-76.75-171.426-171.426zM171.426 329.85c87.495 0 158.424-70.929 158.424-158.424 0-87.495-70.929-158.424-158.424-158.424-87.495 0-158.424 70.929-158.424 158.424 0 87.495 70.929 158.424 158.424 158.424z" data-fill-palette-color="tertiary" fill="#ffffff" stroke="transparent"></path><ellipse rx="164.56874808852186" ry="164.56874808852186" cx="171.42577925887693" cy="171.42577925887693" fill="#ffffff" stroke="transparent" stroke-width="0" fill-opacity="1" data-fill-palette-color="tertiary"></ellipse></g><g transform="matrix(1,0,0,1,64.84655864529837,99.3394700438747)"><svg viewBox="0 0 213.1584412271571 144.17261843000446" height="144.17261843000446" width="213.1584412271571"><g><svg viewBox="0 0 213.1584412271571 144.17261843000446" height="144.17261843000446" width="213.1584412271571"><g><svg viewBox="0 0 213.1584412271571 144.17261843000446" height="144.17261843000446" width="213.1584412271571"><g><svg viewBox="0 0 213.1584412271571 144.17261843000446" height="144.17261843000446" width="213.1584412271571"><g id="textblocktransform"><svg viewBox="0 0 213.1584412271571 144.17261843000446" height="144.17261843000446" width="213.1584412271571" id="textblock"><g><svg viewBox="0 0 213.1584412271571 144.17261843000446" height="144.17261843000446" width="213.1584412271571"><g transform="matrix(1,0,0,1,0,0)"><svg width="213.1584412271571" viewBox="3.55 -30.1 55 37.2" height="144.17261843000446" data-palette-color="#000000"><path d="M17.65-3.5L11.6-3.5Q10.3-3.5 8.93-3.95 7.55-4.4 6.25-5.25L6.25-5.25Q3.55-7 3.55-11.15L3.55-11.15 3.55-22.45Q3.55-24.55 4.28-26.05 5-27.55 6.25-28.4L6.25-28.4Q7.55-29.2 8.9-29.65 10.25-30.1 11.55-30.1L11.55-30.1 19.95-30.1Q21.2-30.1 22.55-29.55 23.9-29 25.05-28.15L25.05-28.15Q26.2-27.2 26.9-25.65 27.6-24.1 27.6-22.15L27.6-22.15 27.6-0.95Q27.6 1.15 26.93 2.63 26.25 4.1 25.05 5.1L25.05 5.1Q23.9 6.05 22.58 6.58 21.25 7.1 19.95 7.1L19.95 7.1 11.55 7.1Q8.9 7.1 6.2 5.55L6.2 5.55Q4.8 4.75 4.17 3.5 3.55 2.25 3.55 0.6L3.55 0.6 3.55 0Q3.55-1 4.2-1.6 4.85-2.2 6.25-2.2L6.25-2.2Q9.05-1.9 9.05 0L9.05 0 9.05 0.55Q9.05 1.1 9.83 1.75 10.6 2.4 12.45 2.4L12.45 2.4 18.7 2.4Q20.55 2.4 21.33 1.35 22.1 0.3 22.1-1L22.1-1 22.1-22.1Q22.1-23.35 21.33-24.38 20.55-25.4 18.7-25.4L18.7-25.4 12.45-25.4Q10.6-25.4 9.83-24.38 9.05-23.35 9.05-22.1L9.05-22.1 9.05-11.55Q9.05-10.3 9.83-9.22 10.6-8.15 12.45-8.15L12.45-8.15 17.65-8.15Q19.45-8.15 19.45-5.85L19.45-5.85Q19.45-4.8 19.03-4.15 18.6-3.5 17.65-3.5L17.65-3.5ZM43.2-17.5L50.55-17.5Q51.8-17.5 53.22-16.93 54.65-16.35 55.9-15.5L55.9-15.5 55.85-15.5Q57.15-14.55 57.85-13.05 58.55-11.55 58.55-9.45L58.55-9.45 58.55-7.95Q58.55-3.85 55.85-1.9L55.85-1.9Q54.55-0.9 53.2-0.45 51.85 0 50.55 0L50.55 0 42.05 0Q40.75 0 39.4-0.45 38.05-0.9 36.75-1.9L36.75-1.9Q34.05-3.8 34.05-7.95L34.05-7.95 34.05-8.55Q34.05-10.7 36.8-10.65L36.8-10.65Q39.6-10.65 39.6-8.55L39.6-8.55 39.6-8Q39.6-6.8 40.35-5.75 41.1-4.7 43-4.7L43-4.7 49.6-4.7Q51.5-4.7 52.25-5.75 53-6.8 53-8L53-8 53-9.4Q53-10.05 52.82-10.65 52.65-11.25 52.25-11.73 51.85-12.2 51.2-12.5 50.55-12.8 49.6-12.8L49.6-12.8 42.3-12.8Q39.75-12.8 36.95-14.6L36.95-14.6Q34.3-16.3 34.3-20.45L34.3-20.45 34.3-22.15Q34.3-24.15 35-25.68 35.7-27.2 37-28.15L37-28.15 36.95-28.15Q38.2-29 39.6-29.55 41-30.1 42.3-30.1L42.3-30.1 50.3-30.1Q51.6-30.1 52.97-29.55 54.35-29 55.65-28.15L55.65-28.15 55.6-28.15Q56.9-27.2 57.6-25.68 58.3-24.15 58.3-22.15L58.3-22.15 58.3-21.7Q58.3-20.65 57.6-20.18 56.9-19.7 55.55-19.65L55.55-19.65Q52.8-19.6 52.8-21.7L52.8-21.7 52.8-22.1Q52.8-23.35 52.02-24.38 51.25-25.4 49.4-25.4L49.4-25.4 43.2-25.4Q41.35-25.4 40.57-24.38 39.8-23.35 39.8-22.1L39.8-22.1 39.8-20.9Q39.8-19.6 40.57-18.55 41.35-17.5 43.2-17.5L43.2-17.5Z" opacity="1" transform="matrix(1,0,0,1,0,0)" fill="#000000" class="wordmark-text-0" data-fill-palette-color="quaternary" id="text-0"></path></svg></g></svg></g></svg></g></svg></g><g></g></svg></g></svg></g></svg></g></svg></g><defs></defs><mask id="255aa92d-37ff-4c9b-8db7-3dae83d7383a"><g id="SvgjsG1264"><svg viewBox="0 0 342.85155851775386 342.85155851775386" height="342.85155851775386" width="342.85155851775386"><g><svg></svg></g><g><svg viewBox="0 0 342.85155851775386 342.85155851775386" height="342.85155851775386" width="342.85155851775386"><g><path d="M0 171.426c0-94.676 76.75-171.426 171.426-171.426 94.676 0 171.426 76.75 171.426 171.426 0 94.676-76.75 171.426-171.426 171.426-94.676 0-171.426-76.75-171.426-171.426zM171.426 329.85c87.495 0 158.424-70.929 158.424-158.424 0-87.495-70.929-158.424-158.424-158.424-87.495 0-158.424 70.929-158.424 158.424 0 87.495 70.929 158.424 158.424 158.424z" fill="white" stroke="transparent"></path><ellipse rx="164.56874808852186" ry="164.56874808852186" cx="171.42577925887693" cy="171.42577925887693" fill="white" stroke="transparent" stroke-width="0" fill-opacity="1"></ellipse></g><g transform="matrix(1,0,0,1,64.84655864529837,99.3394700438747)"><svg viewBox="0 0 213.1584412271571 144.17261843000446" height="144.17261843000446" width="213.1584412271571"><g><svg viewBox="0 0 213.1584412271571 144.17261843000446" height="144.17261843000446" width="213.1584412271571"><g><svg viewBox="0 0 213.1584412271571 144.17261843000446" height="144.17261843000446" width="213.1584412271571"><g><svg viewBox="0 0 213.1584412271571 144.17261843000446" height="144.17261843000446" width="213.1584412271571"><g id="SvgjsG1263"><svg viewBox="0 0 213.1584412271571 144.17261843000446" height="144.17261843000446" width="213.1584412271571" id="SvgjsSvg1262"><g><svg viewBox="0 0 213.1584412271571 144.17261843000446" height="144.17261843000446" width="213.1584412271571"><g transform="matrix(1,0,0,1,0,0)"><svg width="213.1584412271571" viewBox="3.55 -30.1 55 37.2" height="144.17261843000446" data-palette-color="#000000"><path d="M17.65-3.5L11.6-3.5Q10.3-3.5 8.93-3.95 7.55-4.4 6.25-5.25L6.25-5.25Q3.55-7 3.55-11.15L3.55-11.15 3.55-22.45Q3.55-24.55 4.28-26.05 5-27.55 6.25-28.4L6.25-28.4Q7.55-29.2 8.9-29.65 10.25-30.1 11.55-30.1L11.55-30.1 19.95-30.1Q21.2-30.1 22.55-29.55 23.9-29 25.05-28.15L25.05-28.15Q26.2-27.2 26.9-25.65 27.6-24.1 27.6-22.15L27.6-22.15 27.6-0.95Q27.6 1.15 26.93 2.63 26.25 4.1 25.05 5.1L25.05 5.1Q23.9 6.05 22.58 6.58 21.25 7.1 19.95 7.1L19.95 7.1 11.55 7.1Q8.9 7.1 6.2 5.55L6.2 5.55Q4.8 4.75 4.17 3.5 3.55 2.25 3.55 0.6L3.55 0.6 3.55 0Q3.55-1 4.2-1.6 4.85-2.2 6.25-2.2L6.25-2.2Q9.05-1.9 9.05 0L9.05 0 9.05 0.55Q9.05 1.1 9.83 1.75 10.6 2.4 12.45 2.4L12.45 2.4 18.7 2.4Q20.55 2.4 21.33 1.35 22.1 0.3 22.1-1L22.1-1 22.1-22.1Q22.1-23.35 21.33-24.38 20.55-25.4 18.7-25.4L18.7-25.4 12.45-25.4Q10.6-25.4 9.83-24.38 9.05-23.35 9.05-22.1L9.05-22.1 9.05-11.55Q9.05-10.3 9.83-9.22 10.6-8.15 12.45-8.15L12.45-8.15 17.65-8.15Q19.45-8.15 19.45-5.85L19.45-5.85Q19.45-4.8 19.03-4.15 18.6-3.5 17.65-3.5L17.65-3.5ZM43.2-17.5L50.55-17.5Q51.8-17.5 53.22-16.93 54.65-16.35 55.9-15.5L55.9-15.5 55.85-15.5Q57.15-14.55 57.85-13.05 58.55-11.55 58.55-9.45L58.55-9.45 58.55-7.95Q58.55-3.85 55.85-1.9L55.85-1.9Q54.55-0.9 53.2-0.45 51.85 0 50.55 0L50.55 0 42.05 0Q40.75 0 39.4-0.45 38.05-0.9 36.75-1.9L36.75-1.9Q34.05-3.8 34.05-7.95L34.05-7.95 34.05-8.55Q34.05-10.7 36.8-10.65L36.8-10.65Q39.6-10.65 39.6-8.55L39.6-8.55 39.6-8Q39.6-6.8 40.35-5.75 41.1-4.7 43-4.7L43-4.7 49.6-4.7Q51.5-4.7 52.25-5.75 53-6.8 53-8L53-8 53-9.4Q53-10.05 52.82-10.65 52.65-11.25 52.25-11.73 51.85-12.2 51.2-12.5 50.55-12.8 49.6-12.8L49.6-12.8 42.3-12.8Q39.75-12.8 36.95-14.6L36.95-14.6Q34.3-16.3 34.3-20.45L34.3-20.45 34.3-22.15Q34.3-24.15 35-25.68 35.7-27.2 37-28.15L37-28.15 36.95-28.15Q38.2-29 39.6-29.55 41-30.1 42.3-30.1L42.3-30.1 50.3-30.1Q51.6-30.1 52.97-29.55 54.35-29 55.65-28.15L55.65-28.15 55.6-28.15Q56.9-27.2 57.6-25.68 58.3-24.15 58.3-22.15L58.3-22.15 58.3-21.7Q58.3-20.65 57.6-20.18 56.9-19.7 55.55-19.65L55.55-19.65Q52.8-19.6 52.8-21.7L52.8-21.7 52.8-22.1Q52.8-23.35 52.02-24.38 51.25-25.4 49.4-25.4L49.4-25.4 43.2-25.4Q41.35-25.4 40.57-24.38 39.8-23.35 39.8-22.1L39.8-22.1 39.8-20.9Q39.8-19.6 40.57-18.55 41.35-17.5 43.2-17.5L43.2-17.5Z" opacity="1" transform="matrix(1,0,0,1,0,0)" fill="black" class="wordmark-text-0" id="SvgjsPath1261"></path></svg></g></svg></g></svg></g></svg></g><g></g></svg></g></svg></g></svg></g></svg></g><defs><mask></mask></defs></svg><rect width="342.85155851775386" height="342.85155851775386" fill="black" stroke="none" visibility="hidden"></rect></g></mask><linearGradient x1="0.054" x2="0.941" y1="0.5" y2="0.5" id="03625707-3403-4615-8f1d-8c22bf923898"><stop stop-color="#9c7945" offset="0"></stop><stop stop-color="#faf3aa" offset="0.498"></stop><stop stop-color="#9c7945" offset="1"></stop></linearGradient></svg><rect width="342.85155851775386" height="342.85155851775386" fill="none" stroke="none" visibility="hidden"></rect></g></svg></g></svg>